<mxfile host="app.diagrams.net" agent="Mozilla/5.0 (X11; Linux x86_64; rv:133.0) Gecko/20100101 Firefox/133.0" version="24.9.2">
  <diagram id="C5RBs43oDa-KdzZeNtuy" name="Page-1">
    <mxGraphModel dx="3434" dy="778" grid="1" gridSize="10" guides="1" tooltips="1" connect="1" arrows="1" fold="1" page="1" pageScale="1" pageWidth="2000" pageHeight="2000" math="0" shadow="0">
      <root>
        <mxCell id="WIyWlLk6GJQsqaUBKTNV-0" />
        <mxCell id="WIyWlLk6GJQsqaUBKTNV-1" parent="WIyWlLk6GJQsqaUBKTNV-0" />
        <mxCell id="DJnPqNGU1OBcBrdGDTDk-38" style="edgeStyle=orthogonalEdgeStyle;rounded=0;orthogonalLoop=1;jettySize=auto;html=1;exitX=0.5;exitY=1;exitDx=0;exitDy=0;entryX=0.5;entryY=0;entryDx=0;entryDy=0;" edge="1" parent="WIyWlLk6GJQsqaUBKTNV-1" source="DJnPqNGU1OBcBrdGDTDk-1" target="DJnPqNGU1OBcBrdGDTDk-15">
          <mxGeometry relative="1" as="geometry" />
        </mxCell>
        <mxCell id="DJnPqNGU1OBcBrdGDTDk-1" value="&lt;div&gt;Start&lt;/div&gt;" style="ellipse;whiteSpace=wrap;html=1;" vertex="1" parent="WIyWlLk6GJQsqaUBKTNV-1">
          <mxGeometry x="40" width="120" height="80" as="geometry" />
        </mxCell>
        <mxCell id="DJnPqNGU1OBcBrdGDTDk-23" style="edgeStyle=orthogonalEdgeStyle;rounded=0;orthogonalLoop=1;jettySize=auto;html=1;exitX=0.5;exitY=1;exitDx=0;exitDy=0;entryX=0.5;entryY=0;entryDx=0;entryDy=0;" edge="1" parent="WIyWlLk6GJQsqaUBKTNV-1" source="DJnPqNGU1OBcBrdGDTDk-15" target="DJnPqNGU1OBcBrdGDTDk-16">
          <mxGeometry relative="1" as="geometry" />
        </mxCell>
        <mxCell id="DJnPqNGU1OBcBrdGDTDk-15" value="x = 1" style="rounded=0;whiteSpace=wrap;html=1;" vertex="1" parent="WIyWlLk6GJQsqaUBKTNV-1">
          <mxGeometry x="40" y="120" width="120" height="60" as="geometry" />
        </mxCell>
        <mxCell id="DJnPqNGU1OBcBrdGDTDk-24" value="y" style="edgeStyle=orthogonalEdgeStyle;rounded=0;orthogonalLoop=1;jettySize=auto;html=1;exitX=0.5;exitY=1;exitDx=0;exitDy=0;entryX=0.5;entryY=0;entryDx=0;entryDy=0;" edge="1" parent="WIyWlLk6GJQsqaUBKTNV-1" source="DJnPqNGU1OBcBrdGDTDk-16" target="DJnPqNGU1OBcBrdGDTDk-17">
          <mxGeometry relative="1" as="geometry" />
        </mxCell>
        <mxCell id="DJnPqNGU1OBcBrdGDTDk-36" style="edgeStyle=orthogonalEdgeStyle;rounded=0;orthogonalLoop=1;jettySize=auto;html=1;exitX=1;exitY=0.5;exitDx=0;exitDy=0;entryX=1;entryY=0.5;entryDx=0;entryDy=0;" edge="1" parent="WIyWlLk6GJQsqaUBKTNV-1" source="DJnPqNGU1OBcBrdGDTDk-16" target="DJnPqNGU1OBcBrdGDTDk-35">
          <mxGeometry relative="1" as="geometry">
            <Array as="points">
              <mxPoint x="200" y="260" />
              <mxPoint x="200" y="1060" />
            </Array>
          </mxGeometry>
        </mxCell>
        <mxCell id="DJnPqNGU1OBcBrdGDTDk-37" value="n" style="edgeLabel;html=1;align=center;verticalAlign=middle;resizable=0;points=[];" vertex="1" connectable="0" parent="DJnPqNGU1OBcBrdGDTDk-36">
          <mxGeometry x="-0.9756" y="2" relative="1" as="geometry">
            <mxPoint as="offset" />
          </mxGeometry>
        </mxCell>
        <mxCell id="DJnPqNGU1OBcBrdGDTDk-16" value="x &amp;lt;= 2?" style="rhombus;whiteSpace=wrap;html=1;" vertex="1" parent="WIyWlLk6GJQsqaUBKTNV-1">
          <mxGeometry x="60" y="220" width="80" height="80" as="geometry" />
        </mxCell>
        <mxCell id="DJnPqNGU1OBcBrdGDTDk-25" style="edgeStyle=orthogonalEdgeStyle;rounded=0;orthogonalLoop=1;jettySize=auto;html=1;exitX=0.5;exitY=1;exitDx=0;exitDy=0;entryX=0.5;entryY=0;entryDx=0;entryDy=0;" edge="1" parent="WIyWlLk6GJQsqaUBKTNV-1" source="DJnPqNGU1OBcBrdGDTDk-17" target="DJnPqNGU1OBcBrdGDTDk-18">
          <mxGeometry relative="1" as="geometry" />
        </mxCell>
        <mxCell id="DJnPqNGU1OBcBrdGDTDk-17" value="b = 2" style="rounded=0;whiteSpace=wrap;html=1;" vertex="1" parent="WIyWlLk6GJQsqaUBKTNV-1">
          <mxGeometry x="40" y="320" width="120" height="60" as="geometry" />
        </mxCell>
        <mxCell id="DJnPqNGU1OBcBrdGDTDk-26" value="y" style="edgeStyle=orthogonalEdgeStyle;rounded=0;orthogonalLoop=1;jettySize=auto;html=1;exitX=0.5;exitY=1;exitDx=0;exitDy=0;entryX=0.5;entryY=0;entryDx=0;entryDy=0;" edge="1" parent="WIyWlLk6GJQsqaUBKTNV-1" source="DJnPqNGU1OBcBrdGDTDk-18" target="DJnPqNGU1OBcBrdGDTDk-19">
          <mxGeometry relative="1" as="geometry" />
        </mxCell>
        <mxCell id="DJnPqNGU1OBcBrdGDTDk-32" style="edgeStyle=orthogonalEdgeStyle;rounded=0;orthogonalLoop=1;jettySize=auto;html=1;exitX=1;exitY=0.5;exitDx=0;exitDy=0;entryX=1;entryY=0.5;entryDx=0;entryDy=0;" edge="1" parent="WIyWlLk6GJQsqaUBKTNV-1" source="DJnPqNGU1OBcBrdGDTDk-18" target="DJnPqNGU1OBcBrdGDTDk-31">
          <mxGeometry relative="1" as="geometry" />
        </mxCell>
        <mxCell id="DJnPqNGU1OBcBrdGDTDk-33" value="n" style="edgeLabel;html=1;align=center;verticalAlign=middle;resizable=0;points=[];" vertex="1" connectable="0" parent="DJnPqNGU1OBcBrdGDTDk-32">
          <mxGeometry x="-0.9491" y="-2" relative="1" as="geometry">
            <mxPoint y="-2" as="offset" />
          </mxGeometry>
        </mxCell>
        <mxCell id="DJnPqNGU1OBcBrdGDTDk-18" value="b &amp;lt;= 8?" style="rhombus;whiteSpace=wrap;html=1;" vertex="1" parent="WIyWlLk6GJQsqaUBKTNV-1">
          <mxGeometry x="60" y="420" width="80" height="80" as="geometry" />
        </mxCell>
        <mxCell id="DJnPqNGU1OBcBrdGDTDk-27" style="edgeStyle=orthogonalEdgeStyle;rounded=0;orthogonalLoop=1;jettySize=auto;html=1;exitX=0.5;exitY=1;exitDx=0;exitDy=0;entryX=0.5;entryY=0;entryDx=0;entryDy=0;" edge="1" parent="WIyWlLk6GJQsqaUBKTNV-1" source="DJnPqNGU1OBcBrdGDTDk-19" target="DJnPqNGU1OBcBrdGDTDk-20">
          <mxGeometry relative="1" as="geometry" />
        </mxCell>
        <mxCell id="DJnPqNGU1OBcBrdGDTDk-19" value="z = sqrt(4*b+x*x)/2" style="rounded=0;whiteSpace=wrap;html=1;" vertex="1" parent="WIyWlLk6GJQsqaUBKTNV-1">
          <mxGeometry x="40" y="520" width="120" height="60" as="geometry" />
        </mxCell>
        <mxCell id="DJnPqNGU1OBcBrdGDTDk-28" style="edgeStyle=orthogonalEdgeStyle;rounded=0;orthogonalLoop=1;jettySize=auto;html=1;exitX=0.5;exitY=1;exitDx=0;exitDy=0;entryX=0.5;entryY=0;entryDx=0;entryDy=0;" edge="1" parent="WIyWlLk6GJQsqaUBKTNV-1" source="DJnPqNGU1OBcBrdGDTDk-20" target="DJnPqNGU1OBcBrdGDTDk-21">
          <mxGeometry relative="1" as="geometry" />
        </mxCell>
        <mxCell id="DJnPqNGU1OBcBrdGDTDk-20" value="y = exp(x/2)*pow(b,x)*(cos(z)+sin(z))" style="rounded=0;whiteSpace=wrap;html=1;" vertex="1" parent="WIyWlLk6GJQsqaUBKTNV-1">
          <mxGeometry x="40" y="620" width="120" height="60" as="geometry" />
        </mxCell>
        <mxCell id="DJnPqNGU1OBcBrdGDTDk-29" style="edgeStyle=orthogonalEdgeStyle;rounded=0;orthogonalLoop=1;jettySize=auto;html=1;exitX=0.5;exitY=1;exitDx=0;exitDy=0;entryX=0.5;entryY=0;entryDx=0;entryDy=0;" edge="1" parent="WIyWlLk6GJQsqaUBKTNV-1" source="DJnPqNGU1OBcBrdGDTDk-21" target="DJnPqNGU1OBcBrdGDTDk-22">
          <mxGeometry relative="1" as="geometry" />
        </mxCell>
        <mxCell id="DJnPqNGU1OBcBrdGDTDk-21" value="print x, b, z, y" style="shape=parallelogram;perimeter=parallelogramPerimeter;whiteSpace=wrap;html=1;fixedSize=1;" vertex="1" parent="WIyWlLk6GJQsqaUBKTNV-1">
          <mxGeometry x="40" y="720" width="120" height="60" as="geometry" />
        </mxCell>
        <mxCell id="DJnPqNGU1OBcBrdGDTDk-30" style="edgeStyle=orthogonalEdgeStyle;rounded=0;orthogonalLoop=1;jettySize=auto;html=1;exitX=0;exitY=0.5;exitDx=0;exitDy=0;entryX=0;entryY=0.5;entryDx=0;entryDy=0;" edge="1" parent="WIyWlLk6GJQsqaUBKTNV-1" source="DJnPqNGU1OBcBrdGDTDk-22" target="DJnPqNGU1OBcBrdGDTDk-18">
          <mxGeometry relative="1" as="geometry" />
        </mxCell>
        <mxCell id="DJnPqNGU1OBcBrdGDTDk-22" value="b += 2" style="rounded=0;whiteSpace=wrap;html=1;" vertex="1" parent="WIyWlLk6GJQsqaUBKTNV-1">
          <mxGeometry x="40" y="820" width="120" height="60" as="geometry" />
        </mxCell>
        <mxCell id="DJnPqNGU1OBcBrdGDTDk-34" style="edgeStyle=orthogonalEdgeStyle;rounded=0;orthogonalLoop=1;jettySize=auto;html=1;exitX=0;exitY=0.5;exitDx=0;exitDy=0;entryX=0;entryY=0.5;entryDx=0;entryDy=0;" edge="1" parent="WIyWlLk6GJQsqaUBKTNV-1" source="DJnPqNGU1OBcBrdGDTDk-31" target="DJnPqNGU1OBcBrdGDTDk-16">
          <mxGeometry relative="1" as="geometry">
            <Array as="points">
              <mxPoint y="950" />
              <mxPoint y="260" />
            </Array>
          </mxGeometry>
        </mxCell>
        <mxCell id="DJnPqNGU1OBcBrdGDTDk-31" value="x += 0.2" style="rounded=0;whiteSpace=wrap;html=1;" vertex="1" parent="WIyWlLk6GJQsqaUBKTNV-1">
          <mxGeometry x="40" y="920" width="120" height="60" as="geometry" />
        </mxCell>
        <mxCell id="DJnPqNGU1OBcBrdGDTDk-35" value="End" style="ellipse;whiteSpace=wrap;html=1;" vertex="1" parent="WIyWlLk6GJQsqaUBKTNV-1">
          <mxGeometry x="40" y="1020" width="120" height="80" as="geometry" />
        </mxCell>
      </root>
    </mxGraphModel>
  </diagram>
</mxfile>
